# xmcd CD database file
#
# Track frame offsets:
#	150
#	7572
#	29127
#	38025
#	60010
#	90665
#	124305
#	126980
#	147020
#	153607
#	178785
#	194577
#	225075
#
# Disc length: 3018 seconds
#
# Revision: 1
# Processed by: cddbd v1.5PL3 Copyright (c) Steve Scherf et al.
# Submitted via: CDex 1.51
#
DISCID=a10bc80d
DTITLE=水野愛日 - manabee HAPPY WAVE
DYEAR=1900
DGENRE=JPop
TTITLE0=prologue
TTITLE1=Next Happy
TTITLE2=passion
TTITLE3=天使たちのシンフォニー
TTITLE4=crash
TTITLE5=クリスマスメドレー・Last Christmas-星に願いを-SantaClausis Comin' to Town
TTITLE6=disaster
TTITLE7=Choo Choo TRAIN
TTITLE8=millennium party
TTITLE9=愛のほんと
TTITLE10=rebirth
TTITLE11=manabee Dance Remix メドレー
TTITLE12=epilogue
EXTD=
EXTT0=
EXTT1=
EXTT2=
EXTT3=
EXTT4=
EXTT5=
EXTT6=
EXTT7=
EXTT8=
EXTT9=
EXTT10=
EXTT11=
EXTT12=
PLAYORDER=
